<svg width="34" height="34" viewBox="0 0 34 34" fill="none" xmlns="http://www.w3.org/2000/svg">
<circle cx="17" cy="17" r="16.5" stroke="#F0F0EE"/>
<path d="M13.5804 11.552L16.9884 20.672H18.3164V19.92H17.5324L14.1244 10.8H9.77238V11.552H13.5804ZM13.1644 12.128H9.77238V12.88H11.0364L8.44438 19.92H7.66038V20.672H8.98838L11.8524 12.88H12.4764L10.7964 17.472H15.1484L13.1644 12.128ZM12.9724 13.776L14.0604 16.72H11.8844L12.9724 13.776ZM10.5884 18.048L9.61238 20.672H11.9964V19.92H10.7004L11.1164 18.8H14.8284L15.2444 19.92H13.9804V20.672H16.3484L15.3564 18.048H10.5884ZM11.9964 22V21.248H7.66038V22H11.9964ZM18.3164 22V21.248H13.9804V22H18.3164ZM25.4146 20.672V19.92H23.3346V10.8H19.0466V11.552H22.5346V20.672H25.4146ZM21.9266 20.672V12.128H19.0466V12.88H21.1266V19.92H19.0466V20.672H21.9266ZM25.4146 22V21.248H19.0466V22H25.4146Z" fill="#121212"/>
</svg>
