<svg width="486" height="364" viewBox="0 0 486 364" fill="none" xmlns="http://www.w3.org/2000/svg">
<rect width="486" height="364" fill="black"/>
<path d="M201.947 208.439C204.574 208.439 207.412 208.117 210.775 207.688V195.566C209.199 195.78 207.517 195.995 205.941 195.995C201.737 195.995 199.424 194.815 197.007 191.06L194.905 187.842C204.049 180.976 209.935 169.927 209.935 156.625C209.935 133.99 192.803 117.791 171.467 117.791C150.132 117.791 133 133.99 133 156.625C133 179.26 150.132 195.459 171.467 195.459C175.146 195.459 178.719 195.029 182.083 194.064L183.449 196.424C188.704 205.435 193.749 208.439 201.947 208.439ZM171.467 181.727C157.594 181.727 148.24 171 148.24 156.625C148.24 142.25 157.594 131.523 171.467 131.523C185.341 131.523 194.695 142.25 194.695 156.625C194.695 164.134 192.067 170.785 187.653 175.291L180.611 163.276L168.314 170.893L174.62 181.513C173.569 181.62 172.518 181.727 171.467 181.727Z" fill="#F0F0EA"/>
<path d="M257.259 186.126L264.721 194.171H283.325V183.551H274.076L266.298 175.398C269.031 171.107 272.184 165.314 275.127 158.77H283.325V148.15H255.367V158.77H259.887C258.836 161.023 257.68 163.383 256.524 165.529L241.284 149.116C237.5 144.932 235.608 141.177 235.608 137.852C235.608 133.99 238.236 130.45 243.07 130.45C246.644 130.45 249.902 133.454 249.902 137.53C249.902 139.032 249.377 140.963 248.431 143.001L260.517 144.288C262.619 141.07 263.04 137.423 263.04 134.848C263.04 125.622 254.842 117.791 243.491 117.791C227.936 117.791 221.525 128.733 221.525 137.208C221.525 142.679 223.311 147.507 227.515 152.441C219.423 158.449 214.798 165.958 214.798 174.433C214.798 186.769 224.678 195.459 237.185 195.459C245.593 195.459 252.425 192.455 257.259 186.126ZM235.188 162.632L248.01 176.578C245.698 180.44 241.809 182.586 238.236 182.586C234.032 182.586 229.407 179.153 229.407 173.896C229.407 169.927 230.984 166.923 235.188 162.632Z" fill="#F0F0EA"/>
<path d="M311.085 182.478H304.989L307.406 173.682H330.003L332.525 182.478H326.85V194.171H352.705V182.478H348.291L328.637 119.079H298.157V130.772H306.04L290.485 182.478H285.755V194.171H311.085V182.478ZM318.547 134.097H318.757L326.429 160.916H310.979L318.547 134.097Z" fill="#F0F0EA"/>
<path d="M327.819 77H157.707H149.619V85.0605V104.042H157.707V85.0605H327.819V104.042H335.907V85.0605V77H327.819Z" fill="#27AE60"/>
<path d="M327.742 255.347V216.748H335.83V263.483H327.742H310.702H157.63H149.542V255.347V216.748H157.63V255.347H300.624H327.742Z" fill="#27AE60"/>
<path d="M315.806 287L310.91 256.784H278.036L315.806 287Z" fill="#27AE60"/>
<path d="M213.276 234.971H223.524V232.583H215.947V219.202H213.276V234.971ZM233.447 219.202H230.775V234.971H233.447V219.202ZM248.746 234.971L254.705 219.202H251.982L247.513 231.504L243.045 219.202H240.245L246.204 234.971H248.746ZM261.486 219.202V234.971H271.785V232.583H264.105V228.062H271.065V225.725H264.105V221.564H271.785V219.202H261.486Z" fill="white"/>
</svg>
