<svg width="30" height="30" viewBox="0 0 30 30" fill="none" xmlns="http://www.w3.org/2000/svg">
<path fill-rule="evenodd" clip-rule="evenodd" d="M19.2412 8.75882C17.8412 7.35941 15.98 6.58824 14 6.58824C12.02 6.58824 10.1588 7.35941 8.75882 8.75882C7.35941 10.1588 6.58824 12.02 6.58824 14C6.58824 15.98 7.35941 17.8412 8.75882 19.2412C10.1588 20.6406 12.02 21.4118 14 21.4118C15.98 21.4118 17.8412 20.6412 19.2412 19.2412C20.6406 17.8412 21.4118 15.98 21.4118 14C21.4118 12.02 20.6412 10.1588 19.2412 8.75882ZM5 14C5 9.02941 9.02941 5 14 5C18.9706 5 23 9.02941 23 14C23 16.1451 22.2495 18.115 20.9968 19.6613L25.6675 24.3321L24.3319 25.6677L19.6611 20.9969C18.1148 22.2496 16.1451 23 14 23C9.02941 23 5 18.9706 5 14Z" fill="white"/>
</svg>
