<svg width="16" height="16" viewBox="0 0 16 16" fill="none" xmlns="http://www.w3.org/2000/svg">
<g id="Icon">
<path id="Union" fill-rule="evenodd" clip-rule="evenodd" d="M11.9999 11.1122V10.5811H11.4801L8.8139 3.5H5.89514V4.03108H8.4499L11.1161 11.1122H11.9999ZM4.87973 11.1125L7.20188 4.88036H7.57624L6.15819 8.68584H9.78901L8.17228 4.34618H5.87052V4.88036H6.64056L4.51782 10.5784H4V11.1125H4.87973ZM9.02848 8.15165H6.91871L7.9736 5.32058L9.02848 8.15165ZM10.7362 11.1118L9.95989 9.10303H6.0393L5.26297 11.1118H6.63581V10.5935H6.02815L6.404 9.62127H9.59518L9.97104 10.5935H9.36338V11.1118H10.7362ZM4 11.4294H6.63137V11.958H4V11.4294ZM9.36774 11.4294H11.9991V11.958H9.36774V11.4294Z" fill="white"/>
</g>
</svg>
