<svg width="29" height="28" viewBox="0 0 29 28" fill="none" xmlns="http://www.w3.org/2000/svg">
<path d="M12.7568 5.78635C11.1519 5.78632 9.59661 6.34277 8.35597 7.36091C7.11532 8.37904 6.26608 9.79585 5.95294 11.3699C5.63981 12.944 5.88215 14.578 6.63869 15.9934C7.39522 17.4088 8.61913 18.5182 10.1019 19.1324C11.5846 19.7466 13.2345 19.8277 14.7703 19.3618C16.3061 18.8959 17.6329 17.912 18.5246 16.5775C19.4163 15.2431 19.8176 13.6408 19.6604 12.0436C19.5031 10.4464 18.7968 8.95311 17.662 7.81824C17.0193 7.17208 16.2549 6.65979 15.4129 6.31102C14.571 5.96224 13.6682 5.78392 12.7568 5.78635ZM12.7568 17.9822C11.7167 17.9822 10.7 17.6737 9.83523 17.0959C8.97043 16.5181 8.29641 15.6968 7.89838 14.7358C7.50036 13.7749 7.39622 12.7176 7.59913 11.6975C7.80204 10.6774 8.30289 9.74037 9.03834 9.00492C9.77378 8.26947 10.7108 7.76863 11.7309 7.56572C12.751 7.36281 13.8084 7.46695 14.7693 7.86497C15.7302 8.26299 16.5515 8.93702 17.1293 9.80181C17.7071 10.6666 18.0156 11.6833 18.0156 12.7234C18.0138 14.1176 17.4592 15.4541 16.4734 16.4399C15.4875 17.4258 14.151 17.9804 12.7568 17.9822ZM26.0167 22.8291L21.0343 17.8468C21.7384 16.706 22.1992 15.4321 22.388 14.1049C22.5767 12.7777 22.4893 11.4259 22.1312 10.134C21.7732 8.84219 21.1521 7.63824 20.307 6.59763C19.4619 5.55703 18.411 4.70219 17.2201 4.08669C16.0292 3.4712 14.724 3.10831 13.3863 3.02078C12.0486 2.93324 10.7073 3.12295 9.44634 3.578C8.1854 4.03306 7.03203 4.74366 6.05853 5.66526C5.08503 6.58686 4.31238 7.69961 3.789 8.93376C2.98471 10.8353 2.80586 12.9433 3.27828 14.9531C3.75069 16.963 4.84992 18.7706 6.41709 20.1147C7.98426 21.4588 9.93821 22.2698 11.9966 22.4305C14.0549 22.5912 16.1111 22.0933 17.8679 21.0087L22.8525 25.9922L24.0396 24.8051L19.2284 19.9939C19.3683 19.8686 19.507 19.7388 19.6413 19.6045C19.7756 19.4703 19.8975 19.3405 20.0195 19.204L24.8307 24.0152L26.0167 22.8291ZM12.7568 20.7794C10.893 20.7794 9.08688 20.1333 7.6461 18.951C6.20531 17.7687 5.21905 16.1234 4.85537 14.2954C4.49168 12.4674 4.77307 10.5699 5.65158 8.92616C6.5301 7.28241 7.95139 5.99412 9.67328 5.28081C11.3952 4.5675 13.3111 4.4733 15.0947 5.01427C16.8782 5.55523 18.419 6.69788 19.4546 8.24753C20.4901 9.79717 20.9563 11.6579 20.7736 13.5128C20.591 15.3676 19.7709 17.1017 18.4531 18.4196C17.7068 19.1701 16.8191 19.765 15.8413 20.17C14.8635 20.5751 13.8152 20.7822 12.7568 20.7794Z" fill="#F7F7F4"/>
</svg>
