<svg width="486" height="364" viewBox="0 0 486 364" fill="none" xmlns="http://www.w3.org/2000/svg">
<rect width="486" height="364" fill="black"/>
<path d="M156.857 181C166.475 181 172.103 175.036 172.103 166.3C172.103 157.564 166.475 151.6 156.857 151.6H144.383V156.178H146.777V176.422H144.383V181H156.857ZM166.139 166.3C166.139 172.894 162.023 176.044 156.647 176.044H152.615V156.598H156.647C162.023 156.598 166.139 159.79 166.139 166.3ZM175.65 155.128C175.65 157.102 177.204 158.614 179.136 158.614C181.11 158.614 182.664 157.102 182.664 155.128C182.664 153.196 181.11 151.6 179.136 151.6C177.204 151.6 175.65 153.196 175.65 155.128ZM184.47 176.632H182.118V161.764H174.306V166.132H176.658V176.632H174.306V181H184.47V176.632ZM196.145 181.504C200.303 181.504 202.655 178.606 202.655 175.54C202.655 173.062 201.605 170.71 197.531 169.45L193.835 168.316C192.827 168.022 192.155 167.518 192.155 166.846C192.155 166.006 192.911 165.418 194.003 165.418C195.809 165.418 196.985 166.804 197.153 167.728H201.815V161.764H197.111V162.94C196.061 161.806 194.591 161.26 192.911 161.26C188.879 161.26 186.485 164.032 186.485 167.182C186.485 169.702 188.081 171.97 191.315 172.936L194.381 173.86C195.977 174.322 196.943 174.868 196.943 175.834C196.943 176.464 196.439 177.178 195.095 177.178C193.247 177.178 191.819 175.75 191.399 174.532H186.485V181H191.231V179.782C192.659 180.958 194.297 181.504 196.145 181.504ZM219.174 173.65C218.46 175.456 216.696 176.632 214.68 176.632C211.824 176.632 209.85 174.322 209.85 171.298C209.85 168.274 211.74 166.132 214.596 166.132C216.906 166.132 218.46 167.56 218.88 168.988H223.458V161.764H218.754V163.108C217.662 161.848 215.73 161.26 213.84 161.26C208.338 161.26 204.39 165.502 204.39 171.382C204.39 177.262 208.632 181.504 214.554 181.504C218.712 181.504 222.198 179.488 223.626 175.96L219.174 173.65ZM239.959 178.564C239.917 179.236 239.875 179.782 239.875 180.244V181H247.141V176.632H245.209V161.764H236.557V166.132H239.749V174.238C238.699 175.54 237.397 176.422 235.801 176.422C234.079 176.422 232.819 175.414 232.819 172.978V161.764H225.427V166.132H227.359V174.364C227.359 178.858 230.047 181.504 234.205 181.504C236.137 181.504 238.153 180.706 239.959 178.564ZM258.966 181.504C263.124 181.504 265.476 178.606 265.476 175.54C265.476 173.062 264.426 170.71 260.352 169.45L256.656 168.316C255.648 168.022 254.976 167.518 254.976 166.846C254.976 166.006 255.732 165.418 256.824 165.418C258.63 165.418 259.806 166.804 259.974 167.728H264.636V161.764H259.932V162.94C258.882 161.806 257.412 161.26 255.732 161.26C251.7 161.26 249.306 164.032 249.306 167.182C249.306 169.702 250.902 171.97 254.136 172.936L257.202 173.86C258.798 174.322 259.764 174.868 259.764 175.834C259.764 176.464 259.26 177.178 257.916 177.178C256.068 177.178 254.64 175.75 254.22 174.532H249.306V181H254.052V179.782C255.48 180.958 257.118 181.504 258.966 181.504ZM277.46 181.504C281.618 181.504 283.97 178.606 283.97 175.54C283.97 173.062 282.92 170.71 278.846 169.45L275.15 168.316C274.142 168.022 273.47 167.518 273.47 166.846C273.47 166.006 274.226 165.418 275.318 165.418C277.124 165.418 278.3 166.804 278.468 167.728H283.13V161.764H278.426V162.94C277.376 161.806 275.906 161.26 274.226 161.26C270.194 161.26 267.8 164.032 267.8 167.182C267.8 169.702 269.396 171.97 272.63 172.936L275.696 173.86C277.292 174.322 278.258 174.868 278.258 175.834C278.258 176.464 277.754 177.178 276.41 177.178C274.562 177.178 273.134 175.75 272.714 174.532H267.8V181H272.546V179.782C273.974 180.958 275.612 181.504 277.46 181.504ZM287.511 155.128C287.511 157.102 289.065 158.614 290.997 158.614C292.971 158.614 294.525 157.102 294.525 155.128C294.525 153.196 292.971 151.6 290.997 151.6C289.065 151.6 287.511 153.196 287.511 155.128ZM296.331 176.632H293.979V161.764H286.167V166.132H288.519V176.632H286.167V181H296.331V176.632ZM308.048 161.26C302.336 161.26 297.758 165.502 297.758 171.382C297.758 177.262 302.336 181.504 308.048 181.504C313.76 181.504 318.338 177.262 318.338 171.382C318.338 165.502 313.76 161.26 308.048 161.26ZM308.048 176.632C305.192 176.632 303.218 174.364 303.218 171.382C303.218 168.358 305.192 166.132 308.048 166.132C310.862 166.132 312.836 168.358 312.836 171.382C312.836 174.364 310.862 176.632 308.048 176.632ZM330.236 176.632H327.884V168.526C328.934 167.224 330.362 166.342 331.958 166.342C333.68 166.342 335.234 167.35 335.234 169.786V176.632H333.302V181H342.626V176.632H340.694V168.4C340.694 163.906 337.712 161.26 333.554 161.26C331.622 161.26 329.396 162.058 327.632 164.242C327.716 163.528 327.758 162.982 327.758 162.52V161.764H320.492V166.132H322.424V176.632H320.492V181H330.236V176.632Z" fill="white"/>
<rect x="162" y="108" width="6" height="29" fill="#F2C94C"/>
<rect x="318" y="114" width="6" height="32" fill="#F2C94C"/>
<rect x="290" y="108" width="6.00001" height="127" transform="rotate(90 290 108)" fill="#F2C94C"/>
<rect x="324" y="114" width="6" height="40" transform="rotate(90 324 114)" fill="#F2C94C"/>
<rect x="284" y="108" width="6" height="29" fill="#F2C94C"/>
<rect x="290" y="223" width="6" height="21" transform="rotate(-180 290 223)" fill="#F2C94C"/>
<rect x="318" y="202" width="6" height="39" fill="#F2C94C"/>
<rect x="217" y="241" width="6" height="18" transform="rotate(-180 217 241)" fill="#F2C94C"/>
<rect x="168" y="226" width="6" height="24" transform="rotate(-180 168 226)" fill="#F2C94C"/>
<rect x="211" y="241" width="6.00001" height="113" transform="rotate(-90 211 241)" fill="#F2C94C"/>
<rect x="162" y="226" width="6.00002" height="128" transform="rotate(-90 162 226)" fill="#F2C94C"/>
<path d="M173 248L175.5 226H195L173 248Z" fill="#F2C94C"/>
<path d="M309 257L305.5 235H282L309 257Z" fill="#F2C94C"/>
</svg>
