<svg width="20" height="20" viewBox="0 0 20 20" fill="none" xmlns="http://www.w3.org/2000/svg">
<path fill-rule="evenodd" clip-rule="evenodd" d="M9.59971 3.60146L9.59971 2.39032L2.06836 9.92167L2.91689 10.7702L8.39971 5.28737L8.39971 6.41875L3.48257 11.3359L4.3311 12.1844L8.39974 8.11577L8.39974 18.0015L9.59974 18.0015L9.59974 3.60146L9.59971 3.60146ZM9.99973 1.9903L10.0108 2.00138L9.98865 2.00138L9.99973 1.9903ZM10.3997 6.91576L10.3997 2.39027L17.9311 9.92167L17.0825 10.7702L11.5997 5.28744L11.5997 6.41881L16.5168 11.3359L15.6684 12.1844L11.5997 8.11579L11.5997 18.0015L10.3997 18.0015L10.3997 6.91579L10.3997 6.91576Z" fill="#323232"/>
</svg>
