<svg width="13" height="10" viewBox="0 0 13 10" fill="none" xmlns="http://www.w3.org/2000/svg">
<path d="M13 1.21794C12.5357 1.41025 12.0051 1.53846 11.4745 1.60256C12.0051 1.28205 12.4694 0.769232 12.6684 0.19231C12.1378 0.512822 11.6071 0.70513 10.9439 0.833335C10.4796 0.320515 9.75 0 9.02041 0C7.56122 0 6.36734 1.15385 6.36734 2.5641C6.36734 2.75641 6.36735 2.94871 6.43367 3.14102C4.2449 3.01282 2.2551 1.98718 0.928568 0.448716C0.729588 0.833331 0.596935 1.28205 0.596935 1.73077C0.596935 2.6282 1.06122 3.39743 1.79082 3.84615C1.32653 3.84615 0.928568 3.71795 0.596935 3.52564C0.596935 4.74359 1.5255 5.83333 2.71938 6.02563C2.5204 6.08974 2.2551 6.08974 1.9898 6.08974C1.79082 6.08974 1.65816 6.08974 1.45918 6.02563C1.79082 7.05128 2.78572 7.82051 3.97959 7.82051C3.05102 8.52564 1.92347 8.91025 0.663266 8.91025C0.464286 8.91025 0.265306 8.91025 0 8.84615C1.19388 9.55128 2.58673 10 4.11225 10C9.02041 10 11.6735 6.08974 11.6735 2.6923V2.37179C12.2041 2.17948 12.6684 1.73076 13 1.21794Z" fill="#55ACE3"/>
</svg>
