<svg width="24" height="24" viewBox="0 0 24 24" fill="none" xmlns="http://www.w3.org/2000/svg">
<path d="M16.7798 17.6701L11.9998 20.8201L7.21984 17.6701C5.88984 16.7901 5.08984 15.3101 5.08984 13.7201V12.6001H18.8998V13.7201C18.9098 15.3101 18.1098 16.7901 16.7798 17.6701Z" fill="#52524F"/>
<path d="M11.9798 3.29004C10.0498 4.73004 7.65982 5.58004 5.06982 5.58004V11.22H18.8798V5.58004C16.2898 5.58004 13.8998 4.73004 11.9798 3.29004Z" fill="#969693"/>
<path d="M11.99 1.53L12.12 1.63L12.59 1.98C14.54 3.44 16.87 4.21 19.31 4.21H20.09H20.33V4.42V5.2V8.86V10.3V11.08V13.83C20.33 15.86 19.32 17.73 17.63 18.85L12.57 22.19L12.14 22.47L12.02 22.55L11.9 22.47L11.47 22.19L6.39998 18.83C4.70998 17.71 3.69998 15.84 3.69998 13.81V13.7V12.26V11.48V5.2V4.41V4.2H3.88998H4.66998C7.10998 4.2 9.43998 3.43 11.39 1.97L11.86 1.62L11.99 1.53ZM11.99 0L11.13 0.64L10.66 0.99C8.91998 2.29 6.84998 2.98 4.66998 2.98H3.88998H2.47998V4.42V5.2V11.49V12.27V13.71V13.82C2.47998 16.26 3.69998 18.52 5.72998 19.86L10.79 23.2L11.22 23.48L12.01 24L12.8 23.48L13.23 23.2L18.29 19.86C20.33 18.52 21.54 16.26 21.54 13.82V11.07V10.29V8.85V5.2V4.41V2.98H20.08H19.3C17.12 2.98 15.05 2.29 13.31 0.99L12.84 0.64L11.99 0Z" fill="#C4C4C0"/>
</svg>
