<svg width="31" height="30" viewBox="0 0 31 30" fill="none" xmlns="http://www.w3.org/2000/svg">
<path d="M15.4998 13.777C16.2677 13.7773 17.0186 13.5498 17.6572 13.1233C18.2959 12.6969 18.7938 12.0906 19.0879 11.3812C19.382 10.6718 19.4591 9.89105 19.3095 9.1378C19.1598 8.38454 18.7902 7.69259 18.2472 7.14944C17.7043 6.6063 17.0125 6.23637 16.2593 6.08643C15.5061 5.9365 14.7253 6.0133 14.0158 6.30712C13.3063 6.60095 12.6998 7.09859 12.2731 7.73712C11.8464 8.37564 11.6187 9.12637 11.6187 9.89434C11.6198 10.9235 12.029 11.9102 12.7565 12.638C13.4841 13.3659 14.4706 13.7755 15.4998 13.777ZM15.4998 7.80992C15.9121 7.80963 16.3152 7.93162 16.6582 8.16048C17.0012 8.38934 17.2686 8.71478 17.4266 9.09563C17.5846 9.47648 17.6261 9.89563 17.5458 10.3001C17.4656 10.7045 17.2672 11.0761 16.9757 11.3677C16.6842 11.6594 16.3128 11.858 15.9085 11.9386C15.5041 12.0191 15.0849 11.978 14.7039 11.8202C14.323 11.6625 13.9973 11.3953 13.7682 11.0525C13.5391 10.7097 13.4169 10.3067 13.4169 9.89434C13.4175 9.34197 13.6371 8.81239 14.0275 8.42166C14.418 8.03094 14.9474 7.81095 15.4998 7.80992Z" fill="#F7F7F4"/>
<path d="M26.5441 22.3091C25.3265 19.4361 23.0395 17.149 20.1664 15.9315C19.8897 15.8146 19.61 15.7084 19.3273 15.6129C19.6997 15.3623 20.0471 15.0762 20.3645 14.7588C21.3266 13.7966 21.9818 12.5708 22.2473 11.2363C22.5127 9.90179 22.3764 8.51855 21.8557 7.26148C21.335 6.00441 20.4532 4.92998 19.3219 4.17405C18.1905 3.41812 16.8605 3.01465 15.4998 3.01465C14.1392 3.01465 12.8091 3.41812 11.6777 4.17405C10.5464 4.92998 9.66461 6.00441 9.1439 7.26148C8.62319 8.51855 8.48693 9.90179 8.75236 11.2363C9.01778 12.5708 9.67297 13.7966 10.6351 14.7588C10.9526 15.0767 11.3 15.3631 11.6726 15.6141C11.3897 15.7096 11.11 15.8158 10.8335 15.9327C8.66227 16.8493 6.80963 18.3859 5.50745 20.3502C4.20527 22.3145 3.51141 24.6193 3.5127 26.9761V26.9851H5.3109V26.9761C5.3109 25.6379 5.57447 24.3129 6.08655 23.0766C6.59864 21.8403 7.34921 20.717 8.29542 19.7708C9.24164 18.8246 10.365 18.074 11.6012 17.5619C12.8375 17.0498 14.1626 16.7863 15.5007 16.7863C16.8389 16.7863 18.1639 17.0498 19.4002 17.5619C20.6365 18.074 21.7598 18.8246 22.706 19.7708C23.6522 20.717 24.4028 21.8403 24.9149 23.0766C25.427 24.3129 25.6905 25.6379 25.6905 26.9761V26.9851H27.4887V26.9761C27.491 25.3727 27.1697 23.7854 26.5441 22.3091ZM10.4202 9.89405C10.4202 7.09215 12.6979 4.81263 15.5001 4.81263C18.3023 4.81263 20.5815 7.09215 20.5815 9.89405C20.5815 12.6959 18.3023 14.9755 15.5001 14.9755C12.6979 14.9755 10.4202 12.6959 10.4202 9.89405Z" fill="#F7F7F4"/>
<path d="M15.4998 17.9863C13.1152 17.9863 10.8283 18.9336 9.14219 20.6197C7.45605 22.3059 6.50879 24.5928 6.50879 26.9773V26.9863H8.30699V26.9773C8.30699 25.0697 9.0648 23.2402 10.4137 21.8913C11.7626 20.5423 13.5921 19.7845 15.4998 19.7845C17.4074 19.7845 19.237 20.5423 20.5859 21.8913C21.9348 23.2402 22.6926 25.0697 22.6926 26.9773V26.9863H24.4908V26.9773C24.4908 24.5928 23.5435 22.3059 21.8574 20.6197C20.1713 18.9336 17.8844 17.9863 15.4998 17.9863Z" fill="#F7F7F4"/>
</svg>
