<svg width="20" height="20" viewBox="0 0 20 20" fill="none" xmlns="http://www.w3.org/2000/svg">
<path fill-rule="evenodd" clip-rule="evenodd" d="M9.27642 1.9086L7.70747 0.0605469L2.81707 2.98332L3.56806 5.28137C3.27211 5.70752 3.01533 6.16417 2.80291 6.64571L0.5 7.12249V12.8775L2.803 13.3543C3.01538 13.8358 3.27212 14.2924 3.56802 14.7184L2.81698 17.0166L7.70739 19.9394L9.27638 18.0913C9.515 18.1136 9.75643 18.125 10.0001 18.125C10.2442 18.125 10.4859 18.1136 10.7248 18.0912L12.2939 19.9393L17.1843 17.0166L16.433 14.7175C16.7286 14.2916 16.9851 13.8354 17.1973 13.3543L19.5 12.8775V7.12249L17.1974 6.64578C16.9852 6.16458 16.7286 5.70823 16.4329 5.28234L17.1842 2.98335L12.2938 0.0605807L10.7248 1.90869C10.4859 1.88629 10.2442 1.87487 10.0001 1.87487C9.75644 1.87487 9.51502 1.88626 9.27642 1.9086ZM3.91314 7.94767C4.19295 7.05776 4.64981 6.25058 5.24067 5.57067L4.61504 3.65623L7.38632 1.99996L8.6744 3.51718C9.10214 3.42392 9.54561 3.37487 10.0001 3.37487C10.455 3.37487 10.8987 3.42398 11.3267 3.51737L12.615 2L15.3862 3.65626L14.7603 5.5715C15.3509 6.25125 15.8075 7.05816 16.0872 7.94774L18 8.34375V11.6563L16.0871 12.0523C15.8074 12.9418 15.3509 13.7486 14.7604 14.4283L15.3863 16.3437L12.615 17.9999L11.3268 16.4825C10.8988 16.5759 10.455 16.625 10.0001 16.625C9.5456 16.625 9.10211 16.5759 8.67437 16.4827L7.38624 18L4.61495 16.3437L5.24062 14.4291C4.64982 13.7493 4.19301 12.9422 3.9132 12.0524L2 11.6563V8.34375L3.91314 7.94767ZM7.26316 10C7.26316 8.48848 8.48848 7.26316 10 7.26316C11.5115 7.26316 12.7368 8.48848 12.7368 10C12.7368 11.5115 11.5115 12.7368 10 12.7368C8.48848 12.7368 7.26316 11.5115 7.26316 10ZM10 6C7.79086 6 6 7.79086 6 10C6 12.2091 7.79086 14 10 14C12.2091 14 14 12.2091 14 10C14 7.79086 12.2091 6 10 6Z" fill="white"/>
</svg>
