<svg width="11" height="10" viewBox="0 0 11 10" fill="none" xmlns="http://www.w3.org/2000/svg">
<path d="M6.92917 1.78613L2.64307 4.28636V6.78659L5.50047 8.57246L8.71505 3.92918L6.92917 1.78613Z" fill="white"/>
<path fill-rule="evenodd" clip-rule="evenodd" d="M5.354 9.61938L4.64369 9.93753C4.33478 10.0759 3.97117 9.97847 3.77282 9.70418L3.31675 9.0735C3.25711 8.99103 3.16511 8.93791 3.06387 8.9275L2.28965 8.84787C1.95294 8.81324 1.68676 8.54706 1.65213 8.21035L1.5725 7.43613C1.56209 7.33489 1.50897 7.24289 1.4265 7.18325L0.795817 6.72717C0.521537 6.52883 0.424108 6.16522 0.56247 5.85631L0.88062 5.146C0.922226 5.05311 0.922226 4.94689 0.88062 4.854L0.56247 4.14369C0.424108 3.83478 0.521537 3.47117 0.795817 3.27282L1.4265 2.81675C1.50897 2.75711 1.56209 2.66511 1.5725 2.56387L1.65213 1.78965C1.68676 1.45294 1.95294 1.18676 2.28965 1.15213L3.06387 1.0725C3.16511 1.06209 3.25711 1.00897 3.31675 0.926496L3.77282 0.295817C3.97117 0.0215369 4.33478 -0.0758919 4.64369 0.0624703L5.354 0.380618C5.44689 0.422223 5.55311 0.422223 5.646 0.380618L6.35631 0.0624703C6.66522 -0.0758919 7.02883 0.0215369 7.22718 0.295817L7.68325 0.926496C7.74289 1.00897 7.83489 1.06209 7.93613 1.0725L8.71035 1.15213C9.04706 1.18676 9.31324 1.45294 9.34787 1.78965L9.4275 2.56387C9.43791 2.66511 9.49103 2.75711 9.5735 2.81675L10.2042 3.27282C10.4785 3.47117 10.5759 3.83478 10.4375 4.14369L10.1194 4.854C10.0778 4.94689 10.0778 5.05311 10.1194 5.146L10.4375 5.85631C10.5759 6.16522 10.4785 6.52883 10.2042 6.72717L9.5735 7.18325C9.49103 7.24289 9.43791 7.33489 9.4275 7.43613L9.34787 8.21035C9.31324 8.54706 9.04706 8.81324 8.71035 8.84787L7.93613 8.9275C7.83489 8.93791 7.74289 8.99103 7.68325 9.0735L7.22718 9.70418C7.02883 9.97847 6.66522 10.0759 6.35631 9.93753L5.646 9.61938C5.55311 9.57778 5.44689 9.57778 5.354 9.61938ZM3.5702 4.32434L2.96405 4.93049L4.9989 6.96534L8.12252 3.84172L7.51637 3.23557L4.9989 5.75304L3.5702 4.32434Z" fill="#121212"/>
</svg>
