<svg width="15" height="15" viewBox="0 0 15 15" fill="none" xmlns="http://www.w3.org/2000/svg">
<path d="M9.70312 2.56641L3.70312 6.06641V9.56641L7.70312 12.0664L12.2031 5.56641L9.70312 2.56641Z" fill="#1A1A1A"/>
<path fill-rule="evenodd" clip-rule="evenodd" d="M7.4981 13.5323L6.50376 13.9777C6.07132 14.1714 5.56232 14.035 5.28466 13.651L4.64622 12.7682C4.56273 12.6527 4.43395 12.5783 4.29221 12.5638L3.2084 12.4523C2.73706 12.4038 2.36444 12.0312 2.31596 11.5599L2.20449 10.476C2.18991 10.3343 2.11556 10.2055 2.0001 10.122L1.11723 9.48359C0.733274 9.20594 0.596886 8.69693 0.790575 8.2645L1.23594 7.27016C1.29419 7.14012 1.29419 6.99142 1.23594 6.86138L0.790575 5.86704C0.596886 5.43461 0.733274 4.9256 1.11723 4.64794L2.0001 4.0095C2.11556 3.92601 2.18991 3.79723 2.20449 3.65549L2.31596 2.57168C2.36444 2.10034 2.73706 1.72772 3.2084 1.67924L4.29221 1.56777C4.43395 1.55319 4.56273 1.47884 4.64622 1.36338L5.28466 0.480513C5.56232 0.0965552 6.07132 -0.0398328 6.50376 0.153857L7.4981 0.599223C7.62814 0.657465 7.77684 0.657465 7.90688 0.599223L8.90122 0.153857C9.33365 -0.0398328 9.84266 0.0965552 10.1203 0.480513L10.7588 1.36338C10.8422 1.47884 10.971 1.55319 11.1128 1.56777L12.1966 1.67924C12.6679 1.72772 13.0405 2.10034 13.089 2.57168L13.2005 3.65549C13.2151 3.79723 13.2894 3.92601 13.4049 4.0095L14.2877 4.64794C14.6717 4.9256 14.8081 5.43461 14.6144 5.86704L14.169 6.86138C14.1108 6.99142 14.1108 7.14012 14.169 7.27016L14.6144 8.2645C14.8081 8.69693 14.6717 9.20594 14.2877 9.48359L13.4049 10.122C13.2894 10.2055 13.2151 10.3343 13.2005 10.476L13.089 11.5599C13.0405 12.0312 12.6679 12.4038 12.1966 12.4523L11.1128 12.5638C10.971 12.5783 10.8422 12.6527 10.7588 12.7682L10.1203 13.651C9.84266 14.035 9.33365 14.1714 8.90122 13.9777L7.90688 13.5323C7.77684 13.4741 7.62814 13.4741 7.4981 13.5323ZM5.00101 6.11994L4.15249 6.96847L7.00101 9.81699L11.3737 5.44433L10.5252 4.5958L7.00101 8.11994L5.00101 6.11994Z" fill="#F0F0EE"/>
</svg>
