<svg width="486" height="364" viewBox="0 0 486 364" fill="none" xmlns="http://www.w3.org/2000/svg">
<rect width="486" height="364" fill="black"/>
<path d="M328.08 77H157.74H149.641V85.0605V104.042H157.74V85.0605H328.08V104.042H336.179V85.0605V77H328.08Z" fill="#F89A1E"/>
<path d="M183.049 235.148C186.822 235.148 189.363 232.941 189.363 228.628V219.131H186.694V228.32C186.694 231.349 185.41 232.761 183.049 232.761C180.687 232.761 179.404 231.349 179.404 228.32V219.131H176.734V228.603C176.734 232.941 179.301 235.148 183.049 235.148ZM200.956 229.014C204.216 229.014 206.346 227.294 206.346 224.085C206.346 220.825 204.216 219.131 200.956 219.131H194.873V234.892H197.542V229.014H200.956ZM203.703 224.085C203.703 225.6 202.753 226.703 200.905 226.703H197.542V221.441H200.905C202.753 221.441 203.703 222.519 203.703 224.085ZM210.278 227.011C210.278 231.863 213.384 235.148 217.439 235.148C220.981 235.148 223.266 233.095 223.856 229.912H221.238C220.622 231.606 219.544 232.735 217.439 232.735C214.641 232.735 212.973 230.297 212.973 227.011C212.973 223.7 214.667 221.287 217.439 221.287C219.544 221.287 220.622 222.417 221.238 224.085H223.856C223.266 220.928 221.007 218.874 217.439 218.874C213.384 218.874 210.278 222.16 210.278 227.011ZM242.412 227.011C242.412 222.288 239.384 218.874 235.123 218.874C230.862 218.874 227.858 222.288 227.858 227.011C227.858 231.709 230.862 235.148 235.123 235.148C239.384 235.148 242.412 231.709 242.412 227.011ZM239.717 227.011C239.717 230.348 237.895 232.761 235.123 232.761C232.35 232.761 230.554 230.348 230.554 227.011C230.554 223.674 232.35 221.262 235.123 221.262C237.895 221.262 239.717 223.674 239.717 227.011ZM256.092 234.892L260.328 223.931V234.892H262.895V219.131H259.917L255.168 231.247L250.368 219.131H247.314V234.892H249.855V223.931L254.193 234.892H256.092ZM271.324 219.131H268.655V234.892H271.324V219.131ZM289.766 219.131H287.199V230.066L279.601 219.131H277.086V234.892H279.653V223.418L287.713 234.892H289.766V219.131ZM306.248 229.039C305.915 231.247 304.477 232.787 302.09 232.787C299.164 232.787 297.367 230.348 297.367 227.011C297.367 223.674 299.189 221.287 301.987 221.287C304.092 221.287 305.144 222.365 305.786 224.06H308.456C307.84 220.928 305.606 218.874 301.987 218.874C297.88 218.874 294.672 222.16 294.672 227.011C294.672 231.863 297.855 235.148 302.09 235.148C305.94 235.148 308.789 232.35 308.789 227.987V226.755H302.809V229.039H306.248Z" fill="white"/>
<path d="M328.08 255.347V216.748H336.179V263.483H328.08H311.018H157.74H149.641V255.347V216.748H157.74V255.347H300.925H328.08Z" fill="#F89A1E"/>
<path d="M315.775 286.877L310.882 256.679H278.027L315.775 286.877Z" fill="#F89A1E"/>
<path d="M201.906 208.362C204.533 208.362 207.369 208.04 210.73 207.611V195.496C209.154 195.711 207.474 195.925 205.898 195.925C201.696 195.925 199.386 194.746 196.97 190.993L194.869 187.777C204.007 180.916 209.89 169.873 209.89 156.578C209.89 133.957 192.768 117.767 171.445 117.767C150.122 117.767 133 133.957 133 156.578C133 179.2 150.122 195.389 171.445 195.389C175.121 195.389 178.693 194.96 182.054 193.995L183.419 196.354C188.671 205.36 193.713 208.362 201.906 208.362ZM171.445 181.666C157.579 181.666 148.231 170.945 148.231 156.578C148.231 142.212 157.579 131.491 171.445 131.491C185.31 131.491 194.659 142.212 194.659 156.578C194.659 164.083 192.033 170.73 187.621 175.233L180.583 163.225L168.294 170.838L174.596 181.452C173.546 181.559 172.495 181.666 171.445 181.666Z" fill="#F0F0EA"/>
<path d="M257.186 186.062L264.644 194.103H283.236V183.489H273.993L266.22 175.34C268.951 171.052 272.102 165.263 275.043 158.723H283.236V148.109H255.296V158.723H259.812C258.762 160.974 257.607 163.333 256.451 165.477L241.22 149.073C237.439 144.892 235.548 141.14 235.548 137.816C235.548 133.957 238.174 130.419 243.006 130.419C246.577 130.419 249.834 133.42 249.834 137.495C249.834 138.996 249.308 140.925 248.363 142.962L260.443 144.249C262.544 141.033 262.964 137.387 262.964 134.814C262.964 125.594 254.771 117.767 243.426 117.767C227.88 117.767 221.473 128.703 221.473 137.173C221.473 142.641 223.258 147.465 227.46 152.397C219.372 158.401 214.75 165.906 214.75 174.376C214.75 186.705 224.624 195.389 237.124 195.389C245.527 195.389 252.355 192.387 257.186 186.062ZM235.128 162.582L247.943 176.52C245.632 180.379 241.746 182.524 238.174 182.524C233.973 182.524 229.351 179.093 229.351 173.84C229.351 169.873 230.926 166.871 235.128 162.582Z" fill="#F0F0EA"/>
<path d="M310.98 182.416H304.888L307.304 173.625H329.888L332.409 182.416H326.736V194.103H352.576V182.416H348.165L328.522 119.054H298.06V130.74H305.938L290.392 182.416H285.666V194.103H310.98V182.416ZM318.438 134.064H318.648L326.316 160.867H310.875L318.438 134.064Z" fill="#F0F0EA"/>
</svg>
