<svg width="375" height="210" viewBox="0 0 375 210" fill="none" xmlns="http://www.w3.org/2000/svg">
<mask id="mask0" mask-type="alpha" maskUnits="userSpaceOnUse" x="0" y="0" width="375" height="210">
<rect width="375" height="210" fill="url(#paint0_linear)"/>
</mask>
<g mask="url(#mask0)">
<path fill-rule="evenodd" clip-rule="evenodd" d="M158.007 105.341C158.007 89.1403 171.141 76.0068 187.342 76.0068C203.543 76.0068 216.676 89.1403 216.676 105.341C216.676 121.542 203.543 134.676 187.342 134.676C171.141 134.676 158.007 121.542 158.007 105.341ZM187.342 67.6255C166.512 67.6255 149.626 84.5114 149.626 105.341C149.626 126.171 166.512 143.057 187.342 143.057C208.171 143.057 225.057 126.171 225.057 105.341C225.057 84.5114 208.171 67.6255 187.342 67.6255ZM154.415 105.341C154.415 87.1564 169.157 72.4148 187.342 72.4148C205.527 72.4148 220.268 87.1564 220.268 105.341C220.268 123.526 205.527 138.268 187.342 138.268C169.157 138.268 154.415 123.526 154.415 105.341ZM187.342 71.2174C168.496 71.2174 153.218 86.4952 153.218 105.341C153.218 124.187 168.496 139.465 187.342 139.465C206.188 139.465 221.466 124.187 221.466 105.341C221.466 86.4952 206.188 71.2174 187.342 71.2174Z" fill="#D0D0D0"/>
<path fill-rule="evenodd" clip-rule="evenodd" d="M116.101 105.341C116.101 65.9961 147.996 34.1005 187.341 34.1005C226.687 34.1005 258.582 65.9961 258.582 105.341C258.582 144.687 226.687 176.582 187.341 176.582C147.996 176.582 116.101 144.687 116.101 105.341ZM187.341 25.7192C143.367 25.7192 107.719 61.3673 107.719 105.341C107.719 149.315 143.367 184.964 187.341 184.964C231.315 184.964 266.964 149.315 266.964 105.341C266.964 61.3673 231.315 25.7192 187.341 25.7192ZM112.508 105.341C112.508 64.0123 146.012 30.5085 187.341 30.5085C228.67 30.5085 262.174 64.0123 262.174 105.341C262.174 146.67 228.67 180.174 187.341 180.174C146.012 180.174 112.508 146.67 112.508 105.341ZM187.341 29.3112C145.35 29.3112 111.311 63.351 111.311 105.341C111.311 147.332 145.35 181.372 187.341 181.372C229.331 181.372 263.371 147.332 263.371 105.341C263.371 63.351 229.331 29.3112 187.341 29.3112Z" fill="#D0D0D0"/>
<path fill-rule="evenodd" clip-rule="evenodd" d="M65.8128 105.341C65.8128 38.2231 120.223 -16.1871 187.341 -16.1871C254.46 -16.1871 308.87 38.2231 308.87 105.341C308.87 172.46 254.46 226.87 187.341 226.87C120.223 226.87 65.8128 172.46 65.8128 105.341ZM187.341 -24.5684C115.594 -24.5684 57.4315 33.5942 57.4315 105.341C57.4315 177.089 115.594 235.251 187.341 235.251C259.089 235.251 317.251 177.089 317.251 105.341C317.251 33.5942 259.089 -24.5684 187.341 -24.5684ZM62.2209 105.341C62.2209 36.2393 118.239 -19.7791 187.341 -19.7791C256.444 -19.7791 312.462 36.2393 312.462 105.341C312.462 174.444 256.444 230.462 187.341 230.462C118.239 230.462 62.2209 174.444 62.2209 105.341ZM187.341 -20.9764C117.578 -20.9764 61.0236 35.578 61.0236 105.341C61.0236 175.105 117.578 231.659 187.341 231.659C257.105 231.659 313.659 175.105 313.659 105.341C313.659 35.578 257.105 -20.9764 187.341 -20.9764Z" fill="#D0D0D0"/>
<path fill-rule="evenodd" clip-rule="evenodd" d="M49.05 105.341C49.05 28.9653 110.965 -32.9498 187.341 -32.9498C263.717 -32.9498 325.632 28.9653 325.632 105.341C325.632 181.717 263.717 243.632 187.341 243.632C110.965 243.632 49.05 181.717 49.05 105.341ZM187.341 -41.3311C106.336 -41.3311 40.6688 24.3364 40.6688 105.341C40.6688 186.346 106.336 252.014 187.341 252.014C268.346 252.014 334.013 186.346 334.013 105.341C334.013 24.3364 268.346 -41.3311 187.341 -41.3311ZM45.4581 105.341C45.4581 26.9814 108.981 -36.5418 187.341 -36.5418C265.701 -36.5418 329.224 26.9814 329.224 105.341C329.224 183.701 265.701 247.224 187.341 247.224C108.981 247.224 45.4581 183.701 45.4581 105.341ZM187.341 -37.7391C108.32 -37.7391 44.2607 26.3202 44.2607 105.341C44.2607 184.362 108.32 248.422 187.341 248.422C266.362 248.422 330.422 184.362 330.422 105.341C330.422 26.3202 266.362 -37.7391 187.341 -37.7391Z" fill="#D0D0D0"/>
<path fill-rule="evenodd" clip-rule="evenodd" d="M-9.61872 105.341C-9.61872 -3.43671 78.5633 -91.6187 187.341 -91.6187C296.119 -91.6187 384.301 -3.43671 384.301 105.341C384.301 214.119 296.119 302.301 187.341 302.301C78.5633 302.301 -9.61872 214.119 -9.61872 105.341ZM187.341 -100C73.9344 -100 -18 -8.06557 -18 105.341C-18 218.748 73.9344 310.683 187.341 310.683C300.748 310.683 392.683 218.748 392.683 105.341C392.683 -8.06557 300.748 -100 187.341 -100ZM-13.2108 105.341C-13.2108 -5.42053 76.5794 -95.2107 187.341 -95.2107C298.103 -95.2107 387.893 -5.42053 387.893 105.341C387.893 216.103 298.103 305.893 187.341 305.893C76.5794 305.893 -13.2108 216.103 -13.2108 105.341ZM187.341 -96.408C75.9181 -96.408 -14.4081 -6.08179 -14.4081 105.341C-14.4081 216.764 75.9181 307.091 187.341 307.091C298.764 307.091 389.09 216.764 389.09 105.341C389.09 -6.08179 298.764 -96.408 187.341 -96.408Z" fill="#D0D0D0"/>
<path fill-rule="evenodd" clip-rule="evenodd" d="M141.244 105.341C141.244 79.8824 161.883 59.2441 187.341 59.2441C212.8 59.2441 233.438 79.8824 233.438 105.341C233.438 130.8 212.8 151.438 187.341 151.438C161.883 151.438 141.244 130.8 141.244 105.341ZM187.341 50.8628C157.254 50.8628 132.863 75.2536 132.863 105.341C132.863 135.429 157.254 159.819 187.341 159.819C217.429 159.819 241.82 135.429 241.82 105.341C241.82 75.2536 217.429 50.8628 187.341 50.8628ZM137.652 105.341C137.652 77.8985 159.899 55.652 187.341 55.652C214.784 55.652 237.03 77.8985 237.03 105.341C237.03 132.783 214.784 155.03 187.341 155.03C159.899 155.03 137.652 132.783 137.652 105.341ZM187.341 54.4547C159.238 54.4547 136.455 77.2372 136.455 105.341C136.455 133.445 159.238 156.227 187.341 156.227C215.445 156.227 238.228 133.445 238.228 105.341C238.228 77.2372 215.445 54.4547 187.341 54.4547Z" fill="#D0D0D0"/>
</g>
<defs>
<linearGradient id="paint0_linear" x1="187.5" y1="0" x2="187.5" y2="210" gradientUnits="userSpaceOnUse">
<stop stop-color="#323232"/>
<stop offset="1" stop-color="#121212"/>
</linearGradient>
</defs>
</svg>
