<svg width="24" height="24" viewBox="0 0 24 24" fill="none" xmlns="http://www.w3.org/2000/svg">
<path d="M20.1596 8.70722C19.7284 7.63464 19.0896 6.65773 18.28 5.8325C17.4703 5.00727 16.5056 4.34997 15.4412 3.8983C14.3768 3.44664 13.2337 3.20949 12.0775 3.20046C10.9212 3.19144 9.77455 3.41071 8.70326 3.84571C4.20488 5.66309 2.02353 10.8004 3.84107 15.2982C5.22372 18.7194 8.52861 20.7997 12.0116 20.7997C13.4513 20.7978 14.8685 20.4429 16.139 19.766C17.4095 19.0891 18.4945 18.1109 19.2988 16.9172C20.1031 15.7235 20.6022 14.3508 20.7522 12.9194C20.9023 11.488 20.6988 10.0417 20.1596 8.70722Z" fill="white"/>
<path d="M19.7277 8.87823C19.1101 7.34986 18.0532 6.03893 16.6907 5.11122C15.3281 4.18351 13.721 3.68069 12.0726 3.66633C10.4242 3.65198 8.80863 4.12674 7.43009 5.03058C6.05154 5.93442 4.97197 7.22674 4.32789 8.74413C3.68067 10.2616 3.49868 11.937 3.80499 13.5581C4.1113 15.1791 4.89212 16.6726 6.04842 17.8493C7.20472 19.0259 8.68442 19.8326 10.2998 20.1672C11.9153 20.5017 13.5937 20.3489 15.1222 19.7283C16.1371 19.3183 17.0613 18.7125 17.842 17.9454C18.6227 17.1782 19.2447 16.2648 19.6724 15.2572C20.1 14.2497 20.325 13.1677 20.3345 12.0732C20.344 10.9787 20.1378 9.89305 19.7277 8.87823ZM17.5501 9.52159L14.982 10.7961L12.2312 8.7896L12.2225 5.93038L15.4102 4.90077C16.101 5.23106 16.7399 5.66042 17.3067 6.17527L17.5501 9.52159ZM8.59036 4.90115L11.7579 5.9235L11.7667 8.79227L9.04996 10.7743L6.25378 10.0263L6.20564 6.66734C6.88045 5.93171 7.68995 5.33217 8.59036 4.90115ZM4.2171 13.2144L6.11548 10.474L8.89256 11.2167L9.93172 14.4278L8.41156 16.965L5.2406 16.0408C4.72267 15.1723 4.37601 14.2126 4.21939 13.2137L4.2171 13.2144ZM10.7948 19.7814L8.7959 17.2293L10.2977 14.7227H13.6597L15.6463 16.9222L13.8691 19.6523C12.8626 19.8988 11.8172 19.9429 10.7936 19.7821L10.7948 19.7814ZM19.2501 15.078C19.1992 15.1975 19.1459 15.3153 19.0901 15.4314L16.0123 16.6288L14.0574 14.4664L15.0939 11.2618L17.7216 9.95789L19.861 12.5348C19.8004 13.4106 19.5939 14.2702 19.2501 15.078Z" fill="#121212"/>
</svg>
