<svg width="486" height="364" viewBox="0 0 486 364" fill="none" xmlns="http://www.w3.org/2000/svg">
<rect width="486" height="364" fill="black"/>
<path d="M327.307 77.5902H158.515H150.49V85.5882V104.422H158.515V85.5882H327.307V104.422H335.332V85.5882V77.5902H327.307Z" fill="#497AB8"/>
<path d="M204.552 228.161L208.91 234.506H211.917L207.381 228.059C209.853 227.677 211.382 226.173 211.382 223.548C211.382 220.49 209.292 218.859 206.056 218.859H200.016V234.506H202.667V228.161H204.552ZM202.667 221.153H206.005C207.763 221.153 208.757 222.096 208.757 223.548C208.757 225.001 207.763 225.944 206.005 225.944H202.667V221.153ZM218.649 218.859V234.506H228.868V232.136H221.248V227.651H228.155V225.332H221.248V221.204H228.868V218.859H218.649ZM235.396 226.683C235.396 231.499 238.479 234.761 242.506 234.761C246.023 234.761 248.291 232.722 248.877 229.562H246.278C245.666 231.244 244.596 232.366 242.506 232.366C239.728 232.366 238.072 229.945 238.072 226.683C238.072 223.395 239.754 221 242.506 221C244.596 221 245.666 222.121 246.278 223.777H248.877C248.291 220.643 246.048 218.604 242.506 218.604C238.479 218.604 235.396 221.866 235.396 226.683ZM260.358 218.859L254.343 234.506H257.019L258.625 230.174H264.613L266.219 234.506H268.92L262.906 218.859H260.358ZM261.606 222.096L263.747 227.88H259.466L261.606 222.096ZM281.708 228.67C284.944 228.67 287.059 226.963 287.059 223.777C287.059 220.541 284.944 218.859 281.708 218.859H275.668V234.506H278.318V228.67H281.708ZM284.434 223.777C284.434 225.281 283.491 226.377 281.657 226.377H278.318V221.153H281.657C283.491 221.153 284.434 222.223 284.434 223.777Z" fill="white"/>
<path d="M327.307 254.553V216.254H335.332V262.626H327.307H310.399H158.515H150.49V254.553V216.254H158.515V254.553H300.399H327.307Z" fill="#497AB8"/>
<path d="M315.463 285.961L310.605 255.979H277.986L315.463 285.961Z" fill="#497AB8"/>
<path d="M202.412 208.009C205.019 208.009 207.835 207.69 211.172 207.264V195.236C209.608 195.449 207.939 195.662 206.375 195.662C202.203 195.662 199.909 194.491 197.51 190.765L195.425 187.572C204.498 180.76 210.338 169.796 210.338 156.597C210.338 134.138 193.339 118.065 172.169 118.065C150.999 118.065 134 134.138 134 156.597C134 179.057 150.999 195.13 172.169 195.13C175.819 195.13 179.365 194.704 182.702 193.746L184.057 196.088C189.272 205.029 194.278 208.009 202.412 208.009ZM172.169 181.505C158.403 181.505 149.122 170.861 149.122 156.597C149.122 142.334 158.403 131.69 172.169 131.69C185.935 131.69 195.216 142.334 195.216 156.597C195.216 164.048 192.609 170.648 188.229 175.118L181.242 163.197L169.04 170.754L175.297 181.292C174.255 181.398 173.212 181.505 172.169 181.505Z" fill="#F0F0EA"/>
<path d="M257.295 185.869L264.699 193.852H283.158V183.314H273.981L266.264 175.225C268.975 170.967 272.104 165.219 275.024 158.726H283.158V148.188H255.418V158.726H259.902C258.859 160.961 257.712 163.303 256.565 165.432L241.443 149.146C237.689 144.995 235.812 141.27 235.812 137.97C235.812 134.138 238.419 130.625 243.216 130.625C246.762 130.625 249.995 133.606 249.995 137.65C249.995 139.141 249.474 141.057 248.535 143.079L260.528 144.356C262.614 141.163 263.031 137.544 263.031 134.989C263.031 125.835 254.896 118.065 243.633 118.065C228.199 118.065 221.838 128.922 221.838 137.331C221.838 142.76 223.61 147.55 227.782 152.446C219.752 158.407 215.163 165.858 215.163 174.267C215.163 186.508 224.966 195.13 237.376 195.13C245.719 195.13 252.498 192.149 257.295 185.869ZM235.395 162.558L248.118 176.396C245.823 180.228 241.965 182.356 238.419 182.356C234.248 182.356 229.659 178.95 229.659 173.735C229.659 169.796 231.223 166.816 235.395 162.558Z" fill="#F0F0EA"/>
<path d="M310.703 182.25H304.654L307.053 173.522H329.474L331.977 182.25H326.346V193.852H352V182.25H347.62L328.118 119.342H297.875V130.945H305.697L290.262 182.25H285.57V193.852H310.703V182.25ZM318.107 134.244H318.316L325.928 160.855H310.598L318.107 134.244Z" fill="#F0F0EA"/>
</svg>
