<svg width="16" height="20" viewBox="0 0 16 20" fill="none" xmlns="http://www.w3.org/2000/svg">
<path d="M15.4848 12.3485C14.8485 14.0455 13.6667 15.3637 11.9697 16.0606V12.3485L14 10.5152L11.9697 8.71214V6.16668C13.8182 6.03032 15.106 4.66668 15.106 3.00002C15.106 0.818198 13.0151 0.0454712 11.8333 0.0454712C11.5757 0.0454712 11.2879 0.0454712 10.8788 0.151531V0.257592C11.0303 0.257592 11.2576 0.227289 11.3485 0.227289C12.1667 0.227289 12.7879 0.606077 12.7879 1.36365C12.7879 1.92426 12.3182 2.50002 11.5 2.50002C9.46968 2.50002 7.07574 0.848501 4.46968 0.848501C2.1515 0.83335 0.545443 2.56062 0.545443 4.3182C0.545443 6.04547 1.54544 6.60608 2.60605 7.00002L2.63635 6.89396C2.30302 6.68183 2.07574 6.33335 2.07574 5.75759C2.07574 4.98486 2.80302 4.3485 3.69695 4.3485C5.89392 4.3485 9.40908 6.18183 11.606 6.18183H11.8182V8.75759L9.77271 10.5152L11.803 12.3485V16.1061C10.9545 16.4091 10.0757 16.5455 9.1818 16.5455C5.78786 16.5455 3.6212 14.4849 3.6212 11.0606C3.6212 10.2424 3.72726 9.43941 3.95453 8.66668L5.6515 7.92426V15.5L9.10605 13.9849V6.22729L4.03029 8.48487C4.54544 7.00002 5.60605 5.90911 6.86362 5.2879L6.83332 5.21214C3.43938 5.96971 0.136353 8.54547 0.136353 12.4091C0.136353 16.8637 3.89392 19.9546 8.27271 19.9546C12.9091 19.9546 15.5303 16.8637 15.5606 12.3485H15.4848Z" fill="black"/>
</svg>
