<svg width="34" height="16" viewBox="0 0 34 16" fill="none" xmlns="http://www.w3.org/2000/svg">
<g clip-path="url(#clip0_4357_1630)">
<path fill-rule="evenodd" clip-rule="evenodd" d="M8.38669 14.6286H16.0934L19.6067 1.37143H8.38669C4.76002 1.37143 1.81335 4.34286 1.81335 8C1.81335 11.6571 4.76002 14.6286 8.38669 14.6286Z" fill="white"/>
<path fill-rule="evenodd" clip-rule="evenodd" d="M25.6134 0H8.3867C3.9667 0 0.453369 3.54286 0.453369 8C0.453369 12.4571 3.9667 16 8.3867 16H25.6134C30.0334 16 33.5467 12.4571 33.5467 8C33.5467 3.54286 29.92 0 25.6134 0ZM1.81337 8C1.81337 4.34286 4.76004 1.37143 8.3867 1.37143H19.6067L16.0934 14.6286H8.3867C4.76004 14.6286 1.81337 11.6571 1.81337 8Z" fill="#0066FF"/>
<path d="M27.88 4.57142C28.1067 4.79999 28.1067 5.25714 27.88 5.48571L25.5 7.99999L27.9934 10.5143C28.22 10.7429 28.22 11.2 27.9934 11.4286C27.7667 11.6571 27.3134 11.6571 27.0867 11.4286L24.5934 8.91428L22.1 11.4286C21.8734 11.6571 21.42 11.6571 21.1934 11.4286C20.9667 11.2 20.9667 10.7429 21.1934 10.5143L23.5734 7.99999L21.08 5.48571C20.8534 5.25714 20.8534 4.79999 21.08 4.57142C21.3067 4.34285 21.76 4.34285 21.9867 4.57142L24.48 7.08571L26.9734 4.57142C27.2 4.34285 27.6534 4.34285 27.88 4.57142Z" fill="white"/>
<path d="M14.3933 4.68571C14.62 4.91428 14.7333 5.37143 14.5066 5.6L9.74662 11.2C9.63328 11.3143 9.51995 11.4286 9.40662 11.4286C9.17995 11.5429 8.83995 11.5429 8.61328 11.3143L6.11995 8.8C5.89328 8.57143 5.89328 8.11428 6.11995 7.88571C6.34662 7.65714 6.79995 7.65714 7.02662 7.88571L9.06662 9.82857L13.3733 4.68571C13.6 4.45714 14.0533 4.45714 14.3933 4.68571Z" fill="#0066FF"/>
</g>
<defs>
<clipPath id="clip0_4357_1630">
<rect width="34" height="16" fill="white"/>
</clipPath>
</defs>
</svg>
