<svg width="24" height="24" viewBox="0 0 24 24" fill="none" xmlns="http://www.w3.org/2000/svg">
<g id="Icon" clip-path="url(#clip0_4892_609)">
<g id="Group">
<g id="Group_2">
<path id="Vector" d="M12 13.5714C13.1857 13.5714 14.1429 12.6143 14.1429 11.4286V7.14286C14.1429 5.95714 13.1857 5 12 5C10.8143 5 9.85718 5.95714 9.85718 7.14286V11.4286C9.85718 12.6143 10.8143 13.5714 12 13.5714Z" fill="black"/>
<path id="Vector_2" d="M15.5713 11.4286C15.5713 13.4001 13.9713 15.0001 11.9999 15.0001C10.0284 15.0001 8.42845 13.4001 8.42845 11.4286H6.99988C6.99988 13.9501 8.86416 16.0215 11.2856 16.3715V18.5715H12.7142V16.3715C15.1356 16.0215 16.9999 13.9501 16.9999 11.4286H15.5713Z" fill="black"/>
</g>
</g>
</g>
<defs>
<clipPath id="clip0_4892_609">
<rect width="24" height="24" fill="white"/>
</clipPath>
</defs>
</svg>
