<svg width="24" height="24" viewBox="0 0 24 24" fill="none" xmlns="http://www.w3.org/2000/svg">
<path d="M20.1594 8.70722C19.7282 7.63464 19.0895 6.65773 18.2798 5.8325C17.4701 5.00727 16.5054 4.34997 15.441 3.8983C14.3766 3.44664 13.2335 3.20949 12.0773 3.20046C10.921 3.19144 9.77437 3.41071 8.70308 3.84571C4.2047 5.66309 2.02335 10.8004 3.84089 15.2982C5.22353 18.7194 8.52843 20.7997 12.0114 20.7997C13.4511 20.7978 14.8683 20.4429 16.1388 19.766C17.4093 19.0891 18.4943 18.1109 19.2986 16.9172C20.1029 15.7235 20.602 14.3508 20.7521 12.9194C20.9021 11.488 20.6986 10.0417 20.1594 8.70722Z" fill="white"/>
<path d="M19.7276 8.87823C19.11 7.34986 18.0531 6.03893 16.6905 5.11122C15.3279 4.18351 13.7208 3.68069 12.0725 3.66633C10.4241 3.65198 8.80851 4.12674 7.42997 5.03058C6.05142 5.93442 4.97185 7.22674 4.32777 8.74413C3.68055 10.2616 3.49855 11.937 3.80486 13.5581C4.11118 15.1791 4.89199 16.6726 6.0483 17.8493C7.2046 19.0259 8.6843 19.8326 10.2997 20.1672C11.9152 20.5017 13.5935 20.3489 15.122 19.7283C16.1369 19.3183 17.0611 18.7125 17.8419 17.9454C18.6226 17.1782 19.2446 16.2648 19.6722 15.2572C20.0999 14.2497 20.3249 13.1677 20.3344 12.0732C20.3439 10.9787 20.1377 9.89305 19.7276 8.87823ZM17.5499 9.52159L14.9818 10.7961L12.2311 8.7896L12.2223 5.93038L15.4101 4.90077C16.1009 5.23106 16.7398 5.66042 17.3066 6.17527L17.5499 9.52159ZM8.59024 4.90115L11.7578 5.9235L11.7666 8.79227L9.04984 10.7743L6.25366 10.0263L6.20552 6.66734C6.88033 5.93171 7.68982 5.33217 8.59024 4.90115ZM4.21698 13.2144L6.11536 10.474L8.89243 11.2167L9.93159 14.4278L8.41144 16.965L5.24048 16.0408C4.72255 15.1723 4.37589 14.2126 4.21927 13.2137L4.21698 13.2144ZM10.7946 19.7814L8.79578 17.2293L10.2976 14.7227H13.6596L15.6462 16.9222L13.8689 19.6523C12.8625 19.8988 11.8171 19.9429 10.7935 19.7821L10.7946 19.7814ZM19.25 15.078C19.1991 15.1975 19.1457 15.3153 19.09 15.4314L16.0122 16.6288L14.0573 14.4664L15.0938 11.2618L17.7215 9.95789L19.8609 12.5348C19.8003 13.4106 19.5938 14.2702 19.25 15.078Z" fill="#CB3939"/>
</svg>
