<svg width="343" height="250" viewBox="0 0 343 250" fill="none" xmlns="http://www.w3.org/2000/svg">
<g clip-path="url(#clip0_6265_38168)">
<rect width="343" height="250" fill="#F0F0EE"/>
<g opacity="0.7">
<path d="M2 120.632L2 124.46" stroke="#969693" stroke-width="2" stroke-linecap="round"/>
<path d="M8.93896 119.546L8.93897 125.546" stroke="#969693" stroke-width="2" stroke-linecap="round"/>
<path d="M15.8774 117.627L15.8774 127.465" stroke="#969693" stroke-width="2" stroke-linecap="round"/>
<path d="M22.8164 113.546L22.8164 131.546" stroke="#969693" stroke-width="2" stroke-linecap="round"/>
<path d="M29.7549 104.362L29.7549 140.73" stroke="#969693" stroke-width="2" stroke-linecap="round"/>
<path d="M36.6938 95.1401L36.6939 149.952" stroke="#969693" stroke-width="2" stroke-linecap="round"/>
<path d="M43.6328 102.447L43.6328 142.644" stroke="#969693" stroke-width="2" stroke-linecap="round"/>
<path d="M50.5713 110.951L50.5713 134.141" stroke="#969693" stroke-width="2" stroke-linecap="round"/>
<path d="M57.5103 114.465L57.5103 130.627" stroke="#969693" stroke-width="2" stroke-linecap="round"/>
<path d="M64.4487 115.546L64.4487 129.546" stroke="#969693" stroke-width="2" stroke-linecap="round"/>
<path d="M71.3877 114.465L71.3877 130.627" stroke="#969693" stroke-width="2" stroke-linecap="round"/>
<path d="M78.3267 109.546L78.3267 135.546" stroke="#969693" stroke-width="2" stroke-linecap="round"/>
<path d="M85.2651 105.546L85.2651 139.546" stroke="#969693" stroke-width="2" stroke-linecap="round"/>
<path d="M92.2041 98.6538L92.2041 146.438" stroke="#969693" stroke-width="2" stroke-linecap="round"/>
<path d="M99.1431 86.7075L99.1431 158.384" stroke="#969693" stroke-width="2" stroke-linecap="round"/>
<path d="M106.082 99.3564L106.082 145.735" stroke="#969693" stroke-width="2" stroke-linecap="round"/>
<path d="M113.021 108.492L113.021 136.6" stroke="#969693" stroke-width="2" stroke-linecap="round"/>
<path d="M119.959 114.465L119.959 130.627" stroke="#969693" stroke-width="2" stroke-linecap="round"/>
<path d="M126.898 117.627L126.898 127.465" stroke="#969693" stroke-width="2" stroke-linecap="round"/>
<path d="M133.837 114.465L133.837 130.627" stroke="#969693" stroke-width="2" stroke-linecap="round"/>
<path d="M140.775 111.302L140.775 133.789" stroke="#969693" stroke-width="2" stroke-linecap="round"/>
<path d="M147.714 95.1401L147.714 149.952" stroke="#969693" stroke-width="2" stroke-linecap="round"/>
<path d="M154.653 79.6804L154.653 165.411" stroke="#969693" stroke-width="2" stroke-linecap="round"/>
<path d="M161.592 88.8157L161.592 156.276" stroke="#969693" stroke-width="2" stroke-linecap="round"/>
<path d="M168.531 97.2483L168.531 147.844" stroke="#969693" stroke-width="2" stroke-linecap="round"/>
<path d="M175.469 102.87L175.469 142.222" stroke="#969693" stroke-width="2" stroke-linecap="round"/>
<path d="M182.408 98.6538L182.408 146.438" stroke="#969693" stroke-width="2" stroke-linecap="round"/>
<path d="M189.347 94.4375L189.347 150.654" stroke="#969693" stroke-width="2" stroke-linecap="round"/>
<path d="M196.286 88.113L196.286 156.979" stroke="#969693" stroke-width="2" stroke-linecap="round"/>
<path d="M203.225 81.7886L203.225 163.303" stroke="#969693" stroke-width="2" stroke-linecap="round"/>
<path d="M210.163 78.9778L210.163 166.114" stroke="#969693" stroke-width="2" stroke-linecap="round"/>
<path d="M217.102 86.0049L217.102 159.087" stroke="#969693" stroke-width="2" stroke-linecap="round"/>
<path d="M224.041 94.4375L224.041 150.654" stroke="#969693" stroke-width="2" stroke-linecap="round"/>
<path d="M230.979 101.465L230.979 143.627" stroke="#969693" stroke-width="2" stroke-linecap="round"/>
<path d="M237.918 97.2483L237.918 147.844" stroke="#969693" stroke-width="2" stroke-linecap="round"/>
<path d="M244.857 100.762L244.857 144.33" stroke="#969693" stroke-width="2" stroke-linecap="round"/>
<path d="M251.796 107.789L251.796 137.303" stroke="#969693" stroke-width="2" stroke-linecap="round"/>
<path d="M258.735 114.113L258.735 130.978" stroke="#969693" stroke-width="2" stroke-linecap="round"/>
<path d="M265.673 110.6L265.673 134.492" stroke="#969693" stroke-width="2" stroke-linecap="round"/>
<path d="M272.612 114.113L272.612 130.978" stroke="#969693" stroke-width="2" stroke-linecap="round"/>
<path d="M279.551 117.627L279.551 127.465" stroke="#969693" stroke-width="2" stroke-linecap="round"/>
<path d="M286.49 117.627L286.49 127.465" stroke="#969693" stroke-width="2" stroke-linecap="round"/>
<path d="M293.429 114.465L293.429 130.627" stroke="#969693" stroke-width="2" stroke-linecap="round"/>
<path d="M300.368 109.194L300.368 135.897" stroke="#969693" stroke-width="2" stroke-linecap="round"/>
<path d="M307.306 101.465L307.306 143.627" stroke="#969693" stroke-width="2" stroke-linecap="round"/>
<path d="M314.245 107.789L314.245 137.303" stroke="#969693" stroke-width="2" stroke-linecap="round"/>
<path d="M321.184 114.465L321.184 130.627" stroke="#969693" stroke-width="2" stroke-linecap="round"/>
<path d="M328.123 119.032L328.123 126.059" stroke="#969693" stroke-width="2" stroke-linecap="round"/>
<path d="M335.062 114.465L335.062 130.627" stroke="#969693" stroke-width="2" stroke-linecap="round"/>
<path d="M342 120.546L342 124.546" stroke="#969693" stroke-width="2" stroke-linecap="round"/>
</g>
</g>
<defs>
<clipPath id="clip0_6265_38168">
<rect width="343" height="250" fill="white"/>
</clipPath>
</defs>
</svg>
