<svg width="22" height="18" viewBox="0 0 22 18" fill="none" xmlns="http://www.w3.org/2000/svg">
<path fill-rule="evenodd" clip-rule="evenodd" d="M6.5 13.75C6.5 12.5074 5.49264 11.5 4.25 11.5C3.00736 11.5 2 12.5074 2 13.75C2 14.9926 3.00736 16 4.25 16C5.49264 16 6.5 14.9926 6.5 13.75ZM7.92499 14.5H21.5V13H7.92499C7.57753 11.2883 6.06422 10 4.25 10C2.17893 10 0.5 11.6789 0.5 13.75C0.5 15.8211 2.17893 17.5 4.25 17.5C6.06422 17.5 7.57753 16.2117 7.92499 14.5Z" fill="white"/>
<path fill-rule="evenodd" clip-rule="evenodd" d="M15.5 4.25C15.5 3.00736 16.5074 2 17.75 2C18.9926 2 20 3.00736 20 4.25C20 5.49264 18.9926 6.5 17.75 6.5C16.5074 6.5 15.5 5.49264 15.5 4.25ZM14.075 5H0.5V3.5H14.075C14.4225 1.78832 15.9358 0.5 17.75 0.5C19.8211 0.5 21.5 2.17893 21.5 4.25C21.5 6.32107 19.8211 8 17.75 8C15.9358 8 14.4225 6.71168 14.075 5Z" fill="white"/>
</svg>
