<svg width="30" height="30" viewBox="0 0 30 30" fill="none" xmlns="http://www.w3.org/2000/svg">
<path d="M23.7771 18.3403L22.1633 16.7185V13.7128C22.1633 10.7156 20.3518 8.14 17.6365 7.09872C17.364 5.89872 16.2852 5 15 5C13.7148 5 12.6362 5.89872 12.3635 7.09872C9.6482 8.14 7.83668 10.7154 7.83668 13.7128V16.7187L6.22294 18.3405C6.0799 18.4841 6 18.6767 6 18.8772V21.1669C6 21.5782 6.34082 21.9118 6.76102 21.9118H11.8383C11.8422 23.5577 13.3179 25 15 25C16.6821 25 18.1578 23.5577 18.1617 21.9118H23.239C23.6592 21.9118 24 21.5782 24 21.1669V18.8772C24 18.6764 23.9201 18.4838 23.7771 18.3403ZM15 23.5103C14.1007 23.5103 13.3648 22.6805 13.3606 21.9118H16.6397C16.6355 22.6803 15.8996 23.5103 15 23.5103Z" fill="white"/>
</svg>
