<svg width="25" height="24" viewBox="0 0 25 24" fill="none" xmlns="http://www.w3.org/2000/svg">
<path d="M20.2101 3.83654C15.0611 6.32459 10.1888 0.0699626 4.90165 2.62694C4.69435 2.73059 4.65964 2.93789 4.69435 3.11072C4.69435 3.1799 4.69435 3.21437 4.72882 3.28355C6.90593 9.43457 9.11753 15.551 11.2945 21.7021C11.4674 22.2203 12.3313 22.013 12.1239 21.46C11.2945 19.1448 10.4653 16.7948 9.63588 14.4797C9.67035 14.4797 9.67035 14.4452 9.70506 14.4452C11.571 12.9247 13.6445 11.7154 15.5451 10.2638C17.6531 8.63962 19.3465 6.67003 20.7978 4.45843C21.0395 4.04383 20.5902 3.6637 20.2101 3.83654L20.2101 3.83654Z" fill="#969693"/>
</svg>
